<?xml version="1.0" encoding="UTF-8"?>
<svg width="72px" height="45px" viewBox="0 0 72 45" version="1.1" xmlns="http://www.w3.org/2000/svg" xmlns:xlink="http://www.w3.org/1999/xlink">
    <!-- Generator: Sketch 52.1 (67048) - http://www.bohemiancoding.com/sketch -->
    <title>youtube</title>
    <desc>Created with Sketch.</desc>
    <g id="Welcome" stroke="none" stroke-width="1" fill="none" fill-rule="evenodd" opacity="0.429896763">
        <g id="Desktop" transform="translate(-156.000000, -8674.000000)" fill="#FFFFFF" fill-rule="nonzero">
            <g id="footer" transform="translate(0.000000, 8563.000000)">
                <g id="youtube" transform="translate(156.000000, 111.000000)">
                    <path d="M68.94,4.33636364 C66.987,1.17818182 64.8675,0.597272727 60.552,0.376363636 C56.241,0.110454545 45.4005,0 36.009,0 C26.5995,0 15.7545,0.110454545 11.448,0.372272727 C7.1415,0.597272727 5.0175,1.17409091 3.0465,4.33636364 C1.035,7.49045455 0,12.9231818 0,22.4877273 C0,22.4959091 0,22.5 0,22.5 C0,22.5081818 0,22.5122727 0,22.5122727 L0,22.5204545 C0,32.0440909 1.035,37.5177273 3.0465,40.6390909 C5.0175,43.7972727 7.137,44.37 11.4435,44.6359091 C15.7545,44.865 26.5995,45 36.009,45 C45.4005,45 56.241,44.865 60.5565,44.64 C64.872,44.3740909 66.9915,43.8013636 68.9445,40.6431818 C70.974,37.5218182 72,32.0481818 72,22.5245455 C72,22.5245455 72,22.5122727 72,22.5040909 C72,22.5040909 72,22.4959091 72,22.4918182 C72,12.9231818 70.974,7.49045455 68.94,4.33636364 Z M26.4,35.1219512 L26.4,10.9756098 L49.2,23.0487805 L26.4,35.1219512 Z" id="Shape"></path>
                </g>
            </g>
        </g>
    </g>
</svg>